<svg width="1080" height="1080" viewBox="0 0 1080 1080" fill="none" xmlns="http://www.w3.org/2000/svg">
  <rect width="1080" height="1080" fill="#FFFFFF"/>
  <rect x="72" y="72" width="936" height="936" rx="24" stroke="#D9D9D9" stroke-width="2" stroke-dasharray="10 10"/>
  <rect x="120" y="180" width="420" height="720" rx="44" fill="#F7F7F7" stroke="#BDBDBD" stroke-width="3"/>
  <rect x="245" y="205" width="170" height="22" rx="11" fill="#E4E4E4"/>
  <rect x="155" y="265" width="350" height="560" rx="24" fill="#EAEAEA" stroke="#CFCFCF" stroke-width="2"/>
  <path d="M210 760L285 675L360 740L450 610L500 675" stroke="#B5B5B5" stroke-width="10" stroke-linecap="round" stroke-linejoin="round"/>
  <circle cx="265" cy="355" r="34" fill="#D6D6D6"/>
  <rect x="605" y="320" width="300" height="76" rx="14" fill="#111111"/>
  <rect x="605" y="430" width="250" height="28" rx="10" fill="#6B6B6B"/>
  <rect x="605" y="478" width="220" height="28" rx="10" fill="#8A8A8A"/>
  <rect x="605" y="620" width="240" height="18" rx="9" fill="#D8D8D8"/>
  <rect x="605" y="654" width="180" height="18" rx="9" fill="#E2E2E2"/>
  <text x="120" y="950" fill="#9A9A9A" font-family="Arial, sans-serif" font-size="24">Left: uploaded screenshot / graphic</text>
  <text x="605" y="950" fill="#9A9A9A" font-family="Arial, sans-serif" font-size="24">Right: title + subtitle</text>
</svg>
